<?xml version="1.0" encoding="UTF-8"?>
<!DOCTYPE svg PUBLIC "-//W3C//DTD SVG 1.1//EN" "http://www.w3.org/Graphics/SVG/1.1/DTD/svg11.dtd">
<!-- Creator: CorelDRAW -->
<svg xmlns="http://www.w3.org/2000/svg" xml:space="preserve" width="512px" height="512px" version="1.1" style="shape-rendering:geometricPrecision; text-rendering:geometricPrecision; image-rendering:optimizeQuality; fill-rule:evenodd; clip-rule:evenodd"
viewBox="0 0 512 512"
 xmlns:xlink="http://www.w3.org/1999/xlink">
 <defs>
  <style type="text/css">
   <![CDATA[
    .fil0 {fill:#5EAC24}
    .fil3 {fill:#87B565}
    .fil1 {fill:#96C970}
    .fil2 {fill:white}
   ]]>
  </style>
 </defs>
 <g id="Layer_x0020_1">
  <metadata id="CorelCorpID_0Corel-Layer"/>
  <g id="_328448680">
   <path class="fil0" d="M256 512c-141,0 -256,-115 -256,-256 0,-141 115,-256 256,-256 141,0 256,115 256,256 0,141 -115,256 -256,256z"/>
   <path class="fil1" d="M256 465c-115,0 -209,-94 -209,-209 0,-115 94,-209 209,-209 115,0 208,94 208,209 1,115 -93,209 -208,209z"/>
   <path class="fil2" d="M256 371c-4,0 -7,-3 -7,-8l0 -215c0,-4 3,-7 7,-7 4,0 7,3 7,7l0 216c0,4 -3,7 -7,7z"/>
   <path class="fil2" d="M364 263l-216 0c-4,0 -8,-3 -8,-7 0,-5 4,-8 8,-8l215 0c5,0 8,3 8,8 0,4 -3,7 -7,7z"/>
   <path class="fil3" d="M66 267c0,-115 93,-209 208,-209 36,0 69,9 99,25 -34,-23 -74,-36 -117,-36 -115,0 -209,94 -209,209 0,79 44,148 110,184 -55,-38 -91,-101 -91,-173z"/>
  </g>
 </g>
</svg>
